# xmcd
# 
# Track frame offsets:
#     187
#     5077
#     23437
#     47544
#     68697
#     85674
#     97769
#     114604
#     128544
#     152482
#     165057
#     189929
# 
# Disc length: 2720
# 
# Revision: 19
# Processed by: cddbd v1.5.2PL0 Copyright (c) Steve Scherf et al.
# Submitted via: fre:ac v1.0.17
# 
DISCID=730a9e0c
DTITLE=Cocco - クムイウタ
DYEAR=1998
DGENRE=Rock
TTITLE0=小さな雨の日のクワァームイ
TTITLE1=濡れた揺籃
TTITLE2=強く儚い者たち
TTITLE3=あなたへの月
TTITLE4=Rose letter
TTITLE5=My Dear Pig
TTITLE6=うたかた。
TTITLE7=裸体
TTITLE8=夢路
TTITLE9=SATIE
TTITLE10=Raining
TTITLE11=ウナイ
EXTD=
EXTT0=
EXTT1=
EXTT2=
EXTT3=
EXTT4=
EXTT5=
EXTT6=
EXTT7=
EXTT8=
EXTT9=
EXTT10=
EXTT11=
PLAYORDER=
